<?xml version="1.0" encoding="UTF-8"?>
<svg xmlns="http://www.w3.org/2000/svg" xmlns:xlink="http://www.w3.org/1999/xlink" width="335" height="218" viewBox="0 0 335 218">
<defs>
<g>
<g id="glyph-0-0">
<path d="M 8.1875 -3.21875 C 8.1875 -2.59375 8.054688 -2.023438 7.796875 -1.515625 C 7.546875 -1.003906 7.15625 -0.601562 6.625 -0.3125 C 6.101562 -0.0195312 5.4375 0.125 4.625 0.125 C 3.5 0.125 2.640625 -0.179688 2.046875 -0.796875 C 1.453125 -1.421875 1.15625 -2.238281 1.15625 -3.25 L 1.15625 -9.140625 L 2.296875 -9.140625 L 2.296875 -3.21875 C 2.296875 -2.46875 2.492188 -1.890625 2.890625 -1.484375 C 3.296875 -1.078125 3.898438 -0.875 4.703125 -0.875 C 5.523438 -0.875 6.117188 -1.09375 6.484375 -1.53125 C 6.859375 -1.96875 7.046875 -2.53125 7.046875 -3.21875 L 7.046875 -9.140625 L 8.1875 -9.140625 Z M 8.1875 -3.21875 "/>
</g>
<g id="glyph-0-1">
<path d="M 3.375 -0.796875 C 3.550781 -0.796875 3.726562 -0.8125 3.90625 -0.84375 C 4.082031 -0.875 4.226562 -0.90625 4.34375 -0.9375 L 4.34375 -0.078125 C 4.21875 -0.015625 4.046875 0.03125 3.828125 0.0625 C 3.609375 0.101562 3.394531 0.125 3.1875 0.125 C 2.832031 0.125 2.5 0.0625 2.1875 -0.0625 C 1.882812 -0.1875 1.640625 -0.398438 1.453125 -0.703125 C 1.265625 -1.015625 1.171875 -1.445312 1.171875 -2 L 1.171875 -5.984375 L 0.203125 -5.984375 L 0.203125 -6.53125 L 1.1875 -6.96875 L 1.640625 -8.4375 L 2.296875 -8.4375 L 2.296875 -6.859375 L 4.28125 -6.859375 L 4.28125 -5.984375 L 2.296875 -5.984375 L 2.296875 -2.015625 C 2.296875 -1.597656 2.394531 -1.289062 2.59375 -1.09375 C 2.800781 -0.894531 3.0625 -0.796875 3.375 -0.796875 Z M 3.375 -0.796875 "/>
</g>
<g id="glyph-0-2">
<path d="M 1.65625 -9.4375 C 1.832031 -9.4375 1.984375 -9.375 2.109375 -9.25 C 2.242188 -9.132812 2.3125 -8.957031 2.3125 -8.71875 C 2.3125 -8.476562 2.242188 -8.296875 2.109375 -8.171875 C 1.984375 -8.054688 1.832031 -8 1.65625 -8 C 1.46875 -8 1.3125 -8.054688 1.1875 -8.171875 C 1.0625 -8.296875 1 -8.476562 1 -8.71875 C 1 -8.957031 1.0625 -9.132812 1.1875 -9.25 C 1.3125 -9.375 1.46875 -9.4375 1.65625 -9.4375 Z M 2.21875 -6.859375 L 2.21875 0 L 1.09375 0 L 1.09375 -6.859375 Z M 2.21875 -6.859375 "/>
</g>
<g id="glyph-0-3">
<path d="M 2.21875 0 L 1.09375 0 L 1.09375 -9.71875 L 2.21875 -9.71875 Z M 2.21875 0 "/>
</g>
<g id="glyph-0-4">
<path d="M 5.546875 -1.890625 C 5.546875 -1.222656 5.296875 -0.71875 4.796875 -0.375 C 4.304688 -0.0390625 3.644531 0.125 2.8125 0.125 C 2.332031 0.125 1.921875 0.0820312 1.578125 0 C 1.234375 -0.0703125 0.929688 -0.175781 0.671875 -0.3125 L 0.671875 -1.328125 C 0.941406 -1.191406 1.269531 -1.066406 1.65625 -0.953125 C 2.039062 -0.835938 2.4375 -0.78125 2.84375 -0.78125 C 3.414062 -0.78125 3.828125 -0.867188 4.078125 -1.046875 C 4.335938 -1.234375 4.46875 -1.484375 4.46875 -1.796875 C 4.46875 -1.960938 4.421875 -2.113281 4.328125 -2.25 C 4.234375 -2.382812 4.0625 -2.519531 3.8125 -2.65625 C 3.570312 -2.789062 3.226562 -2.945312 2.78125 -3.125 C 2.332031 -3.289062 1.953125 -3.457031 1.640625 -3.625 C 1.328125 -3.800781 1.082031 -4.007812 0.90625 -4.25 C 0.738281 -4.488281 0.65625 -4.796875 0.65625 -5.171875 C 0.65625 -5.753906 0.890625 -6.203125 1.359375 -6.515625 C 1.835938 -6.828125 2.457031 -6.984375 3.21875 -6.984375 C 3.644531 -6.984375 4.035156 -6.941406 4.390625 -6.859375 C 4.753906 -6.785156 5.09375 -6.675781 5.40625 -6.53125 L 5.03125 -5.625 C 4.738281 -5.75 4.429688 -5.851562 4.109375 -5.9375 C 3.796875 -6.019531 3.472656 -6.0625 3.140625 -6.0625 C 2.679688 -6.0625 2.332031 -5.988281 2.09375 -5.84375 C 1.851562 -5.695312 1.734375 -5.492188 1.734375 -5.234375 C 1.734375 -5.046875 1.785156 -4.882812 1.890625 -4.75 C 2.003906 -4.625 2.191406 -4.5 2.453125 -4.375 C 2.710938 -4.25 3.0625 -4.097656 3.5 -3.921875 C 3.925781 -3.765625 4.289062 -3.597656 4.59375 -3.421875 C 4.90625 -3.253906 5.140625 -3.046875 5.296875 -2.796875 C 5.460938 -2.554688 5.546875 -2.253906 5.546875 -1.890625 Z M 5.546875 -1.890625 "/>
</g>
<g id="glyph-0-5">
<path d="M 3.6875 -6.96875 C 4.519531 -6.96875 5.132812 -6.785156 5.53125 -6.421875 C 5.9375 -6.054688 6.140625 -5.472656 6.140625 -4.671875 L 6.140625 0 L 5.328125 0 L 5.109375 -0.96875 L 5.0625 -0.96875 C 4.757812 -0.59375 4.441406 -0.316406 4.109375 -0.140625 C 3.785156 0.0351562 3.332031 0.125 2.75 0.125 C 2.125 0.125 1.609375 -0.0351562 1.203125 -0.359375 C 0.796875 -0.691406 0.59375 -1.207031 0.59375 -1.90625 C 0.59375 -2.59375 0.859375 -3.117188 1.390625 -3.484375 C 1.929688 -3.859375 2.757812 -4.0625 3.875 -4.09375 L 5.046875 -4.140625 L 5.046875 -4.546875 C 5.046875 -5.117188 4.921875 -5.515625 4.671875 -5.734375 C 4.421875 -5.953125 4.070312 -6.0625 3.625 -6.0625 C 3.257812 -6.0625 2.914062 -6.007812 2.59375 -5.90625 C 2.269531 -5.800781 1.96875 -5.679688 1.6875 -5.546875 L 1.34375 -6.390625 C 1.644531 -6.546875 2 -6.679688 2.40625 -6.796875 C 2.8125 -6.910156 3.238281 -6.96875 3.6875 -6.96875 Z M 4.015625 -3.3125 C 3.160156 -3.28125 2.566406 -3.144531 2.234375 -2.90625 C 1.910156 -2.664062 1.75 -2.328125 1.75 -1.890625 C 1.75 -1.503906 1.863281 -1.222656 2.09375 -1.046875 C 2.332031 -0.867188 2.632812 -0.78125 3 -0.78125 C 3.582031 -0.78125 4.066406 -0.9375 4.453125 -1.25 C 4.835938 -1.570312 5.03125 -2.066406 5.03125 -2.734375 L 5.03125 -3.359375 Z M 4.015625 -3.3125 "/>
</g>
<g id="glyph-0-6">
<path d="M 3.734375 -6.984375 C 4.328125 -6.984375 4.832031 -6.851562 5.25 -6.59375 C 5.675781 -6.34375 6 -5.984375 6.21875 -5.515625 C 6.445312 -5.054688 6.5625 -4.515625 6.5625 -3.890625 L 6.5625 -3.21875 L 1.875 -3.21875 C 1.882812 -2.4375 2.078125 -1.84375 2.453125 -1.4375 C 2.835938 -1.03125 3.375 -0.828125 4.0625 -0.828125 C 4.488281 -0.828125 4.867188 -0.867188 5.203125 -0.953125 C 5.546875 -1.035156 5.894531 -1.15625 6.25 -1.3125 L 6.25 -0.3125 C 5.90625 -0.164062 5.5625 -0.0546875 5.21875 0.015625 C 4.875 0.0859375 4.46875 0.125 4 0.125 C 3.351562 0.125 2.78125 -0.00390625 2.28125 -0.265625 C 1.78125 -0.535156 1.390625 -0.929688 1.109375 -1.453125 C 0.835938 -1.972656 0.703125 -2.613281 0.703125 -3.375 C 0.703125 -4.125 0.828125 -4.765625 1.078125 -5.296875 C 1.328125 -5.835938 1.679688 -6.253906 2.140625 -6.546875 C 2.597656 -6.835938 3.128906 -6.984375 3.734375 -6.984375 Z M 3.71875 -6.0625 C 3.1875 -6.0625 2.765625 -5.890625 2.453125 -5.546875 C 2.140625 -5.203125 1.953125 -4.722656 1.890625 -4.109375 L 5.390625 -4.109375 C 5.378906 -4.691406 5.238281 -5.160156 4.96875 -5.515625 C 4.707031 -5.878906 4.289062 -6.0625 3.71875 -6.0625 Z M 3.71875 -6.0625 "/>
</g>
<g id="glyph-0-7">
<path d="M 6.828125 -6.859375 L 6.828125 0 L 5.90625 0 L 5.734375 -0.90625 L 5.6875 -0.90625 C 5.457031 -0.550781 5.144531 -0.289062 4.75 -0.125 C 4.363281 0.0390625 3.945312 0.125 3.5 0.125 C 2.675781 0.125 2.054688 -0.0703125 1.640625 -0.46875 C 1.222656 -0.863281 1.015625 -1.5 1.015625 -2.375 L 1.015625 -6.859375 L 2.15625 -6.859375 L 2.15625 -2.4375 C 2.15625 -1.351562 2.660156 -0.8125 3.671875 -0.8125 C 4.429688 -0.8125 4.957031 -1.019531 5.25 -1.4375 C 5.539062 -1.863281 5.6875 -2.476562 5.6875 -3.28125 L 5.6875 -6.859375 Z M 6.828125 -6.859375 "/>
</g>
<g id="glyph-0-8">
<path d="M 4.28125 -6.984375 C 4.414062 -6.984375 4.554688 -6.976562 4.703125 -6.96875 C 4.847656 -6.957031 4.976562 -6.9375 5.09375 -6.90625 L 4.953125 -5.875 C 4.835938 -5.894531 4.710938 -5.914062 4.578125 -5.9375 C 4.453125 -5.957031 4.328125 -5.96875 4.203125 -5.96875 C 3.859375 -5.96875 3.53125 -5.867188 3.21875 -5.671875 C 2.914062 -5.484375 2.671875 -5.210938 2.484375 -4.859375 C 2.304688 -4.515625 2.21875 -4.113281 2.21875 -3.65625 L 2.21875 0 L 1.09375 0 L 1.09375 -6.859375 L 2.015625 -6.859375 L 2.140625 -5.609375 L 2.1875 -5.609375 C 2.40625 -5.984375 2.691406 -6.304688 3.046875 -6.578125 C 3.398438 -6.847656 3.8125 -6.984375 4.28125 -6.984375 Z M 4.28125 -6.984375 "/>
</g>
<g id="glyph-0-9">
<path d="M 0.921875 -0.6875 C 0.921875 -1.007812 0.992188 -1.234375 1.140625 -1.359375 C 1.296875 -1.484375 1.484375 -1.546875 1.703125 -1.546875 C 1.921875 -1.546875 2.109375 -1.484375 2.265625 -1.359375 C 2.429688 -1.234375 2.515625 -1.007812 2.515625 -0.6875 C 2.515625 -0.382812 2.429688 -0.164062 2.265625 -0.03125 C 2.109375 0.101562 1.921875 0.171875 1.703125 0.171875 C 1.484375 0.171875 1.296875 0.101562 1.140625 -0.03125 C 0.992188 -0.164062 0.921875 -0.382812 0.921875 -0.6875 Z M 0.921875 -0.6875 "/>
</g>
<g id="glyph-0-10">
<path d="M 3.65625 -9.140625 C 4.851562 -9.140625 5.722656 -8.90625 6.265625 -8.4375 C 6.816406 -7.96875 7.09375 -7.304688 7.09375 -6.453125 C 7.09375 -5.941406 6.976562 -5.46875 6.75 -5.03125 C 6.519531 -4.59375 6.140625 -4.238281 5.609375 -3.96875 C 5.078125 -3.695312 4.351562 -3.5625 3.4375 -3.5625 L 2.390625 -3.5625 L 2.390625 0 L 1.234375 0 L 1.234375 -9.140625 Z M 3.5625 -8.15625 L 2.390625 -8.15625 L 2.390625 -4.546875 L 3.3125 -4.546875 C 4.1875 -4.546875 4.835938 -4.6875 5.265625 -4.96875 C 5.691406 -5.25 5.90625 -5.726562 5.90625 -6.40625 C 5.90625 -6.988281 5.710938 -7.425781 5.328125 -7.71875 C 4.953125 -8.007812 4.363281 -8.15625 3.5625 -8.15625 Z M 3.5625 -8.15625 "/>
</g>
<g id="glyph-0-11">
</g>
<g id="glyph-0-12">
<path d="M 3.84375 0.125 C 3.238281 0.125 2.695312 0.00390625 2.21875 -0.234375 C 1.75 -0.484375 1.378906 -0.867188 1.109375 -1.390625 C 0.835938 -1.910156 0.703125 -2.578125 0.703125 -3.390625 C 0.703125 -4.234375 0.84375 -4.921875 1.125 -5.453125 C 1.40625 -5.984375 1.785156 -6.367188 2.265625 -6.609375 C 2.753906 -6.859375 3.304688 -6.984375 3.921875 -6.984375 C 4.265625 -6.984375 4.597656 -6.945312 4.921875 -6.875 C 5.242188 -6.800781 5.507812 -6.710938 5.71875 -6.609375 L 5.375 -5.6875 C 5.164062 -5.757812 4.925781 -5.828125 4.65625 -5.890625 C 4.382812 -5.960938 4.128906 -6 3.890625 -6 C 2.546875 -6 1.875 -5.132812 1.875 -3.40625 C 1.875 -2.570312 2.035156 -1.9375 2.359375 -1.5 C 2.691406 -1.0625 3.179688 -0.84375 3.828125 -0.84375 C 4.203125 -0.84375 4.53125 -0.878906 4.8125 -0.953125 C 5.101562 -1.035156 5.367188 -1.128906 5.609375 -1.234375 L 5.609375 -0.25 C 5.378906 -0.125 5.125 -0.03125 4.84375 0.03125 C 4.5625 0.09375 4.226562 0.125 3.84375 0.125 Z M 3.84375 0.125 "/>
</g>
<g id="glyph-0-13">
<path d="M 7.046875 -3.4375 C 7.046875 -2.300781 6.757812 -1.421875 6.1875 -0.796875 C 5.613281 -0.179688 4.835938 0.125 3.859375 0.125 C 3.242188 0.125 2.695312 -0.0078125 2.21875 -0.28125 C 1.75 -0.5625 1.378906 -0.96875 1.109375 -1.5 C 0.835938 -2.03125 0.703125 -2.675781 0.703125 -3.4375 C 0.703125 -4.570312 0.988281 -5.445312 1.5625 -6.0625 C 2.132812 -6.675781 2.910156 -6.984375 3.890625 -6.984375 C 4.515625 -6.984375 5.0625 -6.84375 5.53125 -6.5625 C 6.007812 -6.289062 6.378906 -5.890625 6.640625 -5.359375 C 6.910156 -4.835938 7.046875 -4.195312 7.046875 -3.4375 Z M 1.875 -3.4375 C 1.875 -2.632812 2.03125 -1.992188 2.34375 -1.515625 C 2.664062 -1.046875 3.175781 -0.8125 3.875 -0.8125 C 4.5625 -0.8125 5.066406 -1.046875 5.390625 -1.515625 C 5.722656 -1.992188 5.890625 -2.632812 5.890625 -3.4375 C 5.890625 -4.25 5.722656 -4.882812 5.390625 -5.34375 C 5.066406 -5.8125 4.554688 -6.046875 3.859375 -6.046875 C 3.160156 -6.046875 2.65625 -5.8125 2.34375 -5.34375 C 2.03125 -4.882812 1.875 -4.25 1.875 -3.4375 Z M 1.875 -3.4375 "/>
</g>
<g id="glyph-0-14">
<path d="M 8.609375 -6.984375 C 9.390625 -6.984375 9.96875 -6.785156 10.34375 -6.390625 C 10.726562 -5.992188 10.921875 -5.351562 10.921875 -4.46875 L 10.921875 0 L 9.8125 0 L 9.8125 -4.421875 C 9.8125 -5.503906 9.347656 -6.046875 8.421875 -6.046875 C 7.753906 -6.046875 7.273438 -5.851562 6.984375 -5.46875 C 6.703125 -5.082031 6.5625 -4.519531 6.5625 -3.78125 L 6.5625 0 L 5.453125 0 L 5.453125 -4.421875 C 5.453125 -5.503906 4.984375 -6.046875 4.046875 -6.046875 C 3.347656 -6.046875 2.867188 -5.832031 2.609375 -5.40625 C 2.347656 -4.976562 2.21875 -4.363281 2.21875 -3.5625 L 2.21875 0 L 1.09375 0 L 1.09375 -6.859375 L 2 -6.859375 L 2.15625 -5.921875 L 2.234375 -5.921875 C 2.441406 -6.285156 2.726562 -6.550781 3.09375 -6.71875 C 3.457031 -6.894531 3.84375 -6.984375 4.25 -6.984375 C 5.320312 -6.984375 6.019531 -6.597656 6.34375 -5.828125 L 6.40625 -5.828125 C 6.632812 -6.222656 6.945312 -6.515625 7.34375 -6.703125 C 7.75 -6.890625 8.171875 -6.984375 8.609375 -6.984375 Z M 8.609375 -6.984375 "/>
</g>
<g id="glyph-0-15">
<path d="M 4.390625 -6.984375 C 5.210938 -6.984375 5.832031 -6.785156 6.25 -6.390625 C 6.664062 -5.992188 6.875 -5.351562 6.875 -4.46875 L 6.875 0 L 5.765625 0 L 5.765625 -4.390625 C 5.765625 -5.492188 5.25 -6.046875 4.21875 -6.046875 C 3.457031 -6.046875 2.929688 -5.832031 2.640625 -5.40625 C 2.359375 -4.976562 2.21875 -4.363281 2.21875 -3.5625 L 2.21875 0 L 1.09375 0 L 1.09375 -6.859375 L 2 -6.859375 L 2.15625 -5.921875 L 2.234375 -5.921875 C 2.453125 -6.285156 2.753906 -6.550781 3.140625 -6.71875 C 3.535156 -6.894531 3.953125 -6.984375 4.390625 -6.984375 Z M 4.390625 -6.984375 "/>
</g>
<g id="glyph-0-16">
<path d="M 3.515625 0.125 C 2.660156 0.125 1.976562 -0.171875 1.46875 -0.765625 C 0.957031 -1.359375 0.703125 -2.242188 0.703125 -3.421875 C 0.703125 -4.597656 0.957031 -5.484375 1.46875 -6.078125 C 1.988281 -6.679688 2.675781 -6.984375 3.53125 -6.984375 C 4.0625 -6.984375 4.492188 -6.882812 4.828125 -6.6875 C 5.171875 -6.5 5.445312 -6.257812 5.65625 -5.96875 L 5.734375 -5.96875 C 5.722656 -6.082031 5.707031 -6.25 5.6875 -6.46875 C 5.664062 -6.6875 5.65625 -6.859375 5.65625 -6.984375 L 5.65625 -9.71875 L 6.78125 -9.71875 L 6.78125 0 L 5.875 0 L 5.703125 -0.921875 L 5.65625 -0.921875 C 5.445312 -0.628906 5.171875 -0.378906 4.828125 -0.171875 C 4.492188 0.0234375 4.054688 0.125 3.515625 0.125 Z M 3.703125 -0.8125 C 4.421875 -0.8125 4.925781 -1.007812 5.21875 -1.40625 C 5.519531 -1.800781 5.671875 -2.398438 5.671875 -3.203125 L 5.671875 -3.40625 C 5.671875 -4.257812 5.53125 -4.910156 5.25 -5.359375 C 4.96875 -5.816406 4.445312 -6.046875 3.6875 -6.046875 C 3.082031 -6.046875 2.628906 -5.804688 2.328125 -5.328125 C 2.023438 -4.847656 1.875 -4.203125 1.875 -3.390625 C 1.875 -2.566406 2.023438 -1.929688 2.328125 -1.484375 C 2.628906 -1.035156 3.085938 -0.8125 3.703125 -0.8125 Z M 3.703125 -0.8125 "/>
</g>
<g id="glyph-0-17">
<path d="M 7.671875 -9.140625 L 4.421875 0 L 3.265625 0 L 0 -9.140625 L 1.203125 -9.140625 L 3.265625 -3.28125 C 3.398438 -2.90625 3.515625 -2.550781 3.609375 -2.21875 C 3.703125 -1.894531 3.78125 -1.582031 3.84375 -1.28125 C 3.894531 -1.582031 3.96875 -1.894531 4.0625 -2.21875 C 4.15625 -2.550781 4.273438 -2.910156 4.421875 -3.296875 L 6.46875 -9.140625 Z M 7.671875 -9.140625 "/>
</g>
<g id="glyph-0-18">
<path d="M 4.34375 -6.984375 C 5.195312 -6.984375 5.878906 -6.6875 6.390625 -6.09375 C 6.910156 -5.507812 7.171875 -4.625 7.171875 -3.4375 C 7.171875 -2.269531 6.910156 -1.382812 6.390625 -0.78125 C 5.878906 -0.175781 5.195312 0.125 4.34375 0.125 C 3.8125 0.125 3.375 0.0234375 3.03125 -0.171875 C 2.6875 -0.367188 2.414062 -0.601562 2.21875 -0.875 L 2.140625 -0.875 C 2.148438 -0.726562 2.164062 -0.539062 2.1875 -0.3125 C 2.207031 -0.09375 2.21875 0.09375 2.21875 0.25 L 2.21875 3.078125 L 1.09375 3.078125 L 1.09375 -6.859375 L 2.015625 -6.859375 L 2.15625 -5.921875 L 2.21875 -5.921875 C 2.414062 -6.222656 2.679688 -6.472656 3.015625 -6.671875 C 3.347656 -6.878906 3.789062 -6.984375 4.34375 -6.984375 Z M 4.140625 -6.046875 C 3.441406 -6.046875 2.945312 -5.847656 2.65625 -5.453125 C 2.375 -5.054688 2.226562 -4.457031 2.21875 -3.65625 L 2.21875 -3.4375 C 2.21875 -2.59375 2.351562 -1.941406 2.625 -1.484375 C 2.90625 -1.035156 3.421875 -0.8125 4.171875 -0.8125 C 4.585938 -0.8125 4.929688 -0.925781 5.203125 -1.15625 C 5.472656 -1.382812 5.671875 -1.695312 5.796875 -2.09375 C 5.929688 -2.488281 6 -2.941406 6 -3.453125 C 6 -4.234375 5.847656 -4.859375 5.546875 -5.328125 C 5.242188 -5.804688 4.773438 -6.046875 4.140625 -6.046875 Z M 4.140625 -6.046875 "/>
</g>
</g>
</defs>
<rect x="-33.5" y="-21.8" width="402" height="261.6" fill="rgb(100%, 100%, 100%)" fill-opacity="1"/>
<path fill="none" stroke-width="0.1" stroke-linecap="butt" stroke-linejoin="miter" stroke="rgb(0%, 0%, 0%)" stroke-opacity="1" stroke-miterlimit="10" d="M 15.350078 2.35 L 25.700078 2.35 L 25.700078 13.1 L 15.350078 13.1 Z M 15.350078 2.35 " transform="matrix(20, 0, 0, 20, -180.9, -45)"/>
<path fill-rule="evenodd" fill="rgb(100%, 100%, 100%)" fill-opacity="1" stroke-width="0.1" stroke-linecap="butt" stroke-linejoin="miter" stroke="rgb(0%, 0%, 0%)" stroke-opacity="1" stroke-miterlimit="10" d="M 10.950078 5.85 C 10.950078 6.015625 10.815703 6.15 10.650078 6.15 C 10.484258 6.15 10.350078 6.015625 10.350078 5.85 C 10.350078 5.684375 10.484258 5.55 10.650078 5.55 C 10.815703 5.55 10.950078 5.684375 10.950078 5.85 " transform="matrix(20, 0, 0, 20, -180.9, -45)"/>
<path fill="none" stroke-width="0.1" stroke-linecap="butt" stroke-linejoin="miter" stroke="rgb(0%, 0%, 0%)" stroke-opacity="1" stroke-miterlimit="10" d="M 9.450078 6.45 L 11.850078 6.45 " transform="matrix(20, 0, 0, 20, -180.9, -45)"/>
<path fill="none" stroke-width="0.1" stroke-linecap="butt" stroke-linejoin="miter" stroke="rgb(0%, 0%, 0%)" stroke-opacity="1" stroke-miterlimit="10" d="M 10.650078 6.15 L 10.650078 7.65 " transform="matrix(20, 0, 0, 20, -180.9, -45)"/>
<path fill="none" stroke-width="0.1" stroke-linecap="butt" stroke-linejoin="miter" stroke="rgb(0%, 0%, 0%)" stroke-opacity="1" stroke-miterlimit="10" d="M 10.650078 7.65 L 9.450078 8.95 " transform="matrix(20, 0, 0, 20, -180.9, -45)"/>
<path fill="none" stroke-width="0.1" stroke-linecap="butt" stroke-linejoin="miter" stroke="rgb(0%, 0%, 0%)" stroke-opacity="1" stroke-miterlimit="10" d="M 10.650078 7.65 L 11.850078 8.95 " transform="matrix(20, 0, 0, 20, -180.9, -45)"/>
<g fill="rgb(0%, 0%, 0%)" fill-opacity="1">
<use xlink:href="#glyph-0-0" x="0.851562" y="159.710341"/>
<use xlink:href="#glyph-0-1" x="10.296007" y="159.710341"/>
<use xlink:href="#glyph-0-2" x="15.018229" y="159.710341"/>
<use xlink:href="#glyph-0-3" x="18.351562" y="159.710341"/>
<use xlink:href="#glyph-0-2" x="21.684896" y="159.710341"/>
<use xlink:href="#glyph-0-4" x="25.018229" y="159.710341"/>
<use xlink:href="#glyph-0-5" x="31.12934" y="159.710341"/>
<use xlink:href="#glyph-0-1" x="38.351562" y="159.710341"/>
<use xlink:href="#glyph-0-6" x="43.073785" y="159.710341"/>
<use xlink:href="#glyph-0-7" x="50.296007" y="159.710341"/>
<use xlink:href="#glyph-0-8" x="58.073785" y="159.710341"/>
</g>
<path fill-rule="evenodd" fill="rgb(100%, 100%, 100%)" fill-opacity="1" stroke-width="0.1" stroke-linecap="butt" stroke-linejoin="miter" stroke="rgb(0%, 0%, 0%)" stroke-opacity="1" stroke-miterlimit="10" d="M 22.150078 10.95 C 22.150078 11.502344 21.422539 11.95 20.525078 11.95 C 19.627617 11.95 18.900078 11.502344 18.900078 10.95 C 18.900078 10.397656 19.627617 9.95 20.525078 9.95 C 21.422539 9.95 22.150078 10.397656 22.150078 10.95 " transform="matrix(20, 0, 0, 20, -180.9, -45)"/>
<g fill="rgb(0%, 0%, 0%)" fill-opacity="1">
<use xlink:href="#glyph-0-9" x="221.28125" y="179.710341"/>
<use xlink:href="#glyph-0-9" x="224.614583" y="179.710341"/>
<use xlink:href="#glyph-0-9" x="227.947917" y="179.710341"/>
<use xlink:href="#glyph-0-9" x="231.28125" y="179.710341"/>
<use xlink:href="#glyph-0-9" x="234.614583" y="179.710341"/>
</g>
<path fill-rule="evenodd" fill="rgb(100%, 100%, 100%)" fill-opacity="1" stroke-width="0.1" stroke-linecap="butt" stroke-linejoin="miter" stroke="rgb(0%, 0%, 0%)" stroke-opacity="1" stroke-miterlimit="10" d="M 24.537578 4.11543 C 24.537578 4.847461 22.757305 5.44082 20.561211 5.44082 C 18.365313 5.44082 16.585039 4.847461 16.585039 4.11543 C 16.585039 3.383398 18.365313 2.790039 20.561211 2.790039 C 22.757305 2.790039 24.537578 3.383398 24.537578 4.11543 " transform="matrix(20, 0, 0, 20, -180.9, -45)"/>
<g fill="rgb(0%, 0%, 0%)" fill-opacity="1">
<use xlink:href="#glyph-0-10" x="174.914063" y="43.018934"/>
<use xlink:href="#glyph-0-5" x="182.69184" y="43.018934"/>
<use xlink:href="#glyph-0-4" x="189.914063" y="43.018934"/>
<use xlink:href="#glyph-0-4" x="196.025174" y="43.018934"/>
<use xlink:href="#glyph-0-6" x="202.136285" y="43.018934"/>
<use xlink:href="#glyph-0-8" x="209.358507" y="43.018934"/>
<use xlink:href="#glyph-0-11" x="214.636285" y="43.018934"/>
<use xlink:href="#glyph-0-12" x="217.969618" y="43.018934"/>
<use xlink:href="#glyph-0-13" x="224.080729" y="43.018934"/>
<use xlink:href="#glyph-0-14" x="231.858507" y="43.018934"/>
<use xlink:href="#glyph-0-14" x="243.802951" y="43.018934"/>
<use xlink:href="#glyph-0-5" x="255.747396" y="43.018934"/>
<use xlink:href="#glyph-0-15" x="262.969618" y="43.018934"/>
<use xlink:href="#glyph-0-16" x="270.747396" y="43.018934"/>
<use xlink:href="#glyph-0-6" x="278.525174" y="43.018934"/>
</g>
<path fill-rule="evenodd" fill="rgb(100%, 100%, 100%)" fill-opacity="1" stroke-width="0.1" stroke-linecap="butt" stroke-linejoin="miter" stroke="rgb(0%, 0%, 0%)" stroke-opacity="1" stroke-miterlimit="10" d="M 23.729961 7.640039 C 23.729961 8.523633 22.309648 9.240039 20.5575 9.240039 C 18.805352 9.240039 17.385039 8.523633 17.385039 7.640039 C 17.385039 6.75625 18.805352 6.040039 20.5575 6.040039 C 22.309648 6.040039 23.729961 6.75625 23.729961 7.640039 " transform="matrix(20, 0, 0, 20, -180.9, -45)"/>
<g fill="rgb(0%, 0%, 0%)" fill-opacity="1">
<use xlink:href="#glyph-0-17" x="201.5" y="105.511122"/>
<use xlink:href="#glyph-0-2" x="209.277778" y="105.511122"/>
<use xlink:href="#glyph-0-4" x="212.611111" y="105.511122"/>
<use xlink:href="#glyph-0-7" x="218.722222" y="105.511122"/>
<use xlink:href="#glyph-0-5" x="226.5" y="105.511122"/>
<use xlink:href="#glyph-0-3" x="233.722222" y="105.511122"/>
<use xlink:href="#glyph-0-2" x="237.055556" y="105.511122"/>
<use xlink:href="#glyph-0-4" x="240.388889" y="105.511122"/>
<use xlink:href="#glyph-0-6" x="246.5" y="105.511122"/>
<use xlink:href="#glyph-0-8" x="253.722222" y="105.511122"/>
</g>
<g fill="rgb(0%, 0%, 0%)" fill-opacity="1">
<use xlink:href="#glyph-0-7" x="198.726562" y="121.511122"/>
<use xlink:href="#glyph-0-15" x="206.50434" y="121.511122"/>
<use xlink:href="#glyph-0-11" x="214.282118" y="121.511122"/>
<use xlink:href="#glyph-0-18" x="217.615451" y="121.511122"/>
<use xlink:href="#glyph-0-8" x="225.393229" y="121.511122"/>
<use xlink:href="#glyph-0-13" x="230.393229" y="121.511122"/>
<use xlink:href="#glyph-0-16" x="238.171007" y="121.511122"/>
<use xlink:href="#glyph-0-7" x="245.948785" y="121.511122"/>
<use xlink:href="#glyph-0-2" x="253.726562" y="121.511122"/>
<use xlink:href="#glyph-0-1" x="257.059896" y="121.511122"/>
</g>
<path fill="none" stroke-width="0.1" stroke-linecap="butt" stroke-linejoin="miter" stroke="rgb(0%, 0%, 0%)" stroke-opacity="1" stroke-miterlimit="10" d="M 11.900078 7.65 L 14.242461 7.65 L 14.242461 4.11543 L 16.361406 4.11543 " transform="matrix(20, 0, 0, 20, -180.9, -45)"/>
<path fill="none" stroke-width="0.1" stroke-linecap="butt" stroke-linejoin="miter" stroke="rgb(0%, 0%, 0%)" stroke-opacity="1" stroke-miterlimit="10" d="M 15.973125 4.36543 L 16.473125 4.11543 L 15.973125 3.86543 " transform="matrix(20, 0, 0, 20, -180.9, -45)"/>
<path fill="none" stroke-width="0.1" stroke-linecap="butt" stroke-linejoin="miter" stroke="rgb(0%, 0%, 0%)" stroke-opacity="1" stroke-miterlimit="10" d="M 12.204766 7.65 L 14.250078 7.65 L 14.250078 7.640039 L 17.161406 7.640039 " transform="matrix(20, 0, 0, 20, -180.9, -45)"/>
<path fill="none" stroke-width="0.1" stroke-linecap="butt" stroke-linejoin="miter" stroke="rgb(0%, 0%, 0%)" stroke-opacity="1" stroke-miterlimit="10" d="M 16.773125 7.890039 L 17.273125 7.640039 L 16.773125 7.390039 " transform="matrix(20, 0, 0, 20, -180.9, -45)"/>
<path fill="none" stroke-width="0.1" stroke-linecap="butt" stroke-linejoin="miter" stroke="rgb(0%, 0%, 0%)" stroke-opacity="1" stroke-miterlimit="10" d="M 11.900078 7.65 L 14.250078 7.65 L 14.250078 10.95 L 18.676445 10.95 " transform="matrix(20, 0, 0, 20, -180.9, -45)"/>
<path fill="none" stroke-width="0.1" stroke-linecap="butt" stroke-linejoin="miter" stroke="rgb(0%, 0%, 0%)" stroke-opacity="1" stroke-miterlimit="10" d="M 18.288164 11.2 L 18.788164 10.95 L 18.288164 10.7 " transform="matrix(20, 0, 0, 20, -180.9, -45)"/>
</svg>
