<?xml version="1.0" encoding="UTF-8" standalone="no"?>
<!DOCTYPE svg PUBLIC "-//W3C//DTD SVG 1.0//EN" "http://www.w3.org/TR/2001/PR-SVG-20010719/DTD/svg10.dtd">
<svg width="17cm" height="11cm" viewBox="180 46 335 217" xmlns="http://www.w3.org/2000/svg" xmlns:xlink="http://www.w3.org/1999/xlink">
  <g id="Arrière-plan">
    <g>
      <ellipse style="fill: #ffffff; fill-opacity: 1; stroke-opacity: 1; stroke-width: 2; stroke: #000000" cx="213" cy="117" rx="6" ry="6"/>
      <line style="fill: none; stroke-opacity: 1; stroke-width: 2; stroke: #000000" x1="189" y1="129" x2="237" y2="129"/>
      <line style="fill: none; stroke-opacity: 1; stroke-width: 2; stroke: #000000" x1="213" y1="123" x2="213" y2="153"/>
      <line style="fill: none; stroke-opacity: 1; stroke-width: 2; stroke: #000000" x1="213" y1="153" x2="189" y2="179"/>
      <line style="fill: none; stroke-opacity: 1; stroke-width: 2; stroke: #000000" x1="213" y1="153" x2="237" y2="179"/>
      <text font-size="12.7998" style="fill: #000000; fill-opacity: 1; stroke: none;text-anchor:middle;font-family:sans-serif;font-style:normal;font-weight:normal" x="213" y="202.881">
        <tspan x="213" y="202.881">Utilisateur</tspan>
        <tspan x="213" y="218.881">connecté</tspan>
      </text>
    </g>
    <g>
      <ellipse style="fill: #ffffff; fill-opacity: 1; stroke-opacity: 1; stroke-width: 2; stroke: #000000" cx="411.575" cy="225.525" rx="82.575" ry="27.525"/>
      <text font-size="12.7998" style="fill: #000000; fill-opacity: 1; stroke: none;text-anchor:middle;font-family:sans-serif;font-style:normal;font-weight:normal" x="411.575" y="229.406">
        <tspan x="411.575" y="229.406">Passer commande</tspan>
      </text>
    </g>
    <g>
      <ellipse style="fill: #ffffff; fill-opacity: 1; stroke-opacity: 1; stroke-width: 2; stroke: #000000" cx="411.256" cy="82.3187" rx="79.5562" ry="26.5187"/>
      <text font-size="12.7998" style="fill: #000000; fill-opacity: 1; stroke: none;text-anchor:middle;font-family:sans-serif;font-style:normal;font-weight:normal" x="411.256" y="86.1998">
        <tspan x="411.256" y="86.1998">Ajouter au panier</tspan>
      </text>
    </g>
    <g>
      <ellipse style="fill: #ffffff; fill-opacity: 1; stroke-opacity: 1; stroke-width: 2; stroke: #000000" cx="410.606" cy="152.769" rx="77.9062" ry="25.9687"/>
      <text font-size="12.7998" style="fill: #000000; fill-opacity: 1; stroke: none;text-anchor:middle;font-family:sans-serif;font-style:normal;font-weight:normal" x="410.606" y="156.65">
        <tspan x="410.606" y="156.65">Retirer du panier</tspan>
      </text>
    </g>
    <g>
      <polyline style="fill: none; stroke-opacity: 1; stroke-width: 2; stroke: #000000" points="238,153 284.85,153 284.85,82.3187 327.228,82.3187 "/>
      <polyline style="fill: none; stroke-opacity: 1; stroke-width: 2; stroke: #000000" points="319.464,87.3187 329.464,82.3187 319.464,77.3187 "/>
    </g>
    <g>
      <polyline style="fill: none; stroke-opacity: 1; stroke-width: 2; stroke: #000000" points="245.854,153 285,153 285,152.769 328.228,152.769 "/>
      <polyline style="fill: none; stroke-opacity: 1; stroke-width: 2; stroke: #000000" points="320.464,157.769 330.464,152.769 320.464,147.769 "/>
    </g>
    <g>
      <polyline style="fill: none; stroke-opacity: 1; stroke-width: 2; stroke: #000000" points="238,153 285,153 285,225.525 324.528,225.525 "/>
      <polyline style="fill: none; stroke-opacity: 1; stroke-width: 2; stroke: #000000" points="316.764,230.525 326.764,225.525 316.764,220.525 "/>
    </g>
    <rect style="fill: none; stroke-opacity: 1; stroke-width: 2; stroke: #000000" x="307" y="47" width="207" height="215" rx="0" ry="0"/>
  </g>
</svg>
